/vscmnt/brussel_pixiu_data/_data_brussel/112/vsc11236/PredSimResults/SUBJ07_Dhondt2024_3seg/weighted-LRposFixed/worker_05.mot
version=1
nRows=4
nColumns=124
inDegrees=yes
endheader
                time	         pelvis_tilt	         pelvis_list	     pelvis_rotation	           pelvis_tx	           pelvis_ty	           pelvis_tz	       hip_flexion_r	     hip_adduction_r	      hip_rotation_r	        knee_angle_r	       ankle_angle_r	    subtalar_angle_r	         mtp_angle_r	       hip_flexion_l	     hip_adduction_l	      hip_rotation_l	        knee_angle_l	       ankle_angle_l	    subtalar_angle_l	         mtp_angle_l	    lumbar_extension	      lumbar_bending	     lumbar_rotation	          arm_flex_r	           arm_add_r	           arm_rot_r	        elbow_flex_r	          arm_flex_l	           arm_add_l	           arm_rot_l	        elbow_flex_l	glut_med1_r/activation	glut_med2_r/activation	glut_med3_r/activation	glut_min1_r/activation	glut_min2_r/activation	glut_min3_r/activation	semimem_r/activation	semiten_r/activation	bifemlh_r/activation	bifemsh_r/activation	    sar_r/activation	add_long_r/activation	add_brev_r/activation	add_mag1_r/activation	add_mag2_r/activation	add_mag3_r/activation	    tfl_r/activation	   pect_r/activation	   grac_r/activation	glut_max1_r/activation	glut_max2_r/activation	glut_max3_r/activation	iliacus_r/activation	  psoas_r/activation	quad_fem_r/activation	    gem_r/activation	   peri_r/activation	rect_fem_r/activation	vas_med_r/activation	vas_int_r/activation	vas_lat_r/activation	med_gas_r/activation	lat_gas_r/activation	 soleus_r/activation	tib_post_r/activation	flex_dig_r/activation	flex_hal_r/activation	tib_ant_r/activation	per_brev_r/activation	per_long_r/activation	per_tert_r/activation	ext_dig_r/activation	ext_hal_r/activation	glut_med1_l/activation	glut_med2_l/activation	glut_med3_l/activation	glut_min1_l/activation	glut_min2_l/activation	glut_min3_l/activation	semimem_l/activation	semiten_l/activation	bifemlh_l/activation	bifemsh_l/activation	    sar_l/activation	add_long_l/activation	add_brev_l/activation	add_mag1_l/activation	add_mag2_l/activation	add_mag3_l/activation	    tfl_l/activation	   pect_l/activation	   grac_l/activation	glut_max1_l/activation	glut_max2_l/activation	glut_max3_l/activation	iliacus_l/activation	  psoas_l/activation	quad_fem_l/activation	    gem_l/activation	   peri_l/activation	rect_fem_l/activation	vas_med_l/activation	vas_int_l/activation	vas_lat_l/activation	med_gas_l/activation	lat_gas_l/activation	 soleus_l/activation	tib_post_l/activation	flex_dig_l/activation	flex_hal_l/activation	tib_ant_l/activation	per_brev_l/activation	per_long_l/activation	per_tert_l/activation	ext_dig_l/activation	ext_hal_l/activation	 ercspn_r/activation	 ercspn_l/activation	 intobl_r/activation	 intobl_l/activation	 extobl_r/activation	 extobl_l/activation	
          1.09841634	         -2.92759424	         -0.38476593	          3.31287842	          1.24121047	          0.84633476	         -0.00212626	         28.25826487	          2.15514619	          2.67298259	        -10.67168962	          6.92589342	         -2.71702459	          0.23348710	        -17.28385592	          1.07564337	          9.17355168	         -4.56551018	          5.35602307	         11.15611627	         14.58196018	         -6.55287190	         -1.03165423	         -1.45506933	        -24.90481509	        -14.36840579	          8.57798092	         27.97625865	         23.82595441	        -13.45201951	         19.27574603	         55.61511394	          0.01399653	          0.01399648	          0.01000011	          0.01399651	          0.01399642	          0.01000037	          0.17998969	          0.04248400	          0.01183071	          0.01000006	          0.01668650	          0.07483335	          0.15614443	          0.10845374	          0.13293296	          0.11058743	          0.01000005	          0.01586075	          0.05660020	          0.01183078	          0.01183073	          0.07736974	          0.01855477	          0.01701447	          0.01429979	          0.01000012	          0.01000004	          0.01000000	          0.08970174	          0.09097286	          0.07669609	          0.01120090	          0.01061405	          0.01183068	          0.01183067	          0.01000015	          0.01094495	          0.26960055	          0.22268640	          0.14609461	          0.07617782	          0.30924763	          0.02860110	          0.17444811	          0.09736033	          0.06154087	          0.28465662	          0.22158711	          0.14687033	          0.01183037	          0.01000091	          0.01183058	          0.03835068	          0.10027402	          0.01000002	          0.01000001	          0.01000004	          0.01000019	          0.01000018	          0.38398012	          0.01000008	          0.01000011	          0.01803808	          0.01402883	          0.01000630	          0.23357360	          0.42904088	          0.01655883	          0.01655916	          0.05992103	          0.27912945	          0.01000006	          0.01000008	          0.01000007	          0.38573111	          0.42763478	          0.31231421	          0.28634352	          0.35055381	          0.42406799	          0.01425795	          0.08246949	          0.20084792	          0.01638248	          0.01400724	          0.01501780	          0.01399652	          0.00999999	          0.03568182	          0.01000000	          0.11035486	          0.01000001	
          1.10940051	         -2.92158241	         -0.63538007	          3.50657555	          1.25638070	          0.84565915	         -0.00185875	         27.70964298	          2.60951444	          2.70397766	        -10.59882351	          6.01830659	         -2.83216605	          0.23921675	        -17.32190212	          0.77059027	          9.08343414	         -6.27564162	          4.44985910	         11.43740362	         15.72175673	         -6.40551287	         -0.54375544	         -1.52293166	        -25.91152083	        -14.33706160	          8.50992487	         27.79391859	         23.53870125	        -13.46184742	         19.14077768	         57.09861309	          0.01183069	          0.01183067	          0.01000000	          0.01183070	          0.01183069	          0.01000066	          0.15213791	          0.03590999	          0.01000001	          0.01000001	          0.01410444	          0.06325401	          0.13198266	          0.21407267	          0.18120294	          0.11861807	          0.01000018	          0.01968271	          0.04784185	          0.01000008	          0.01000004	          0.07462200	          0.01655884	          0.01655863	          0.14685787	          0.01000003	          0.01000002	          0.01399656	          0.12676794	          0.11264879	          0.10136782	          0.00999999	          0.00999999	          0.00999999	          0.00999999	          0.01000000	          0.01000000	          0.28186467	          0.18822776	          0.12993316	          0.09657408	          0.33672093	          0.02417536	          0.21865212	          0.08229469	          0.05201797	          0.24063663	          0.18729850	          0.12414347	          0.01000009	          0.01000000	          0.01000000	          0.03241625	          0.08475753	          0.06706700	          0.01000010	          0.01000005	          0.01000010	          0.01000002	          0.32456265	          0.10328852	          0.01397995	          0.01524687	          0.01185802	          0.01000006	          0.19743019	          0.36265066	          0.01399650	          0.01399679	          0.05064878	          0.25861909	          0.01000002	          0.01000002	          0.01000002	          0.32604268	          0.36524349	          0.29076245	          0.27774870	          0.31773103	          0.39679316	          0.01205166	          0.06970809	          0.19267871	          0.01384744	          0.01183974	          0.01269393	          0.01183068	          0.01122827	          0.03016038	          0.02594783	          0.09327843	          0.01000008	
          1.12038467	         -2.91195360	         -0.89184592	          3.68447359	          1.27179850	          0.84500416	         -0.00159889	         27.13419674	          3.04713180	          2.77342280	        -11.10079951	          4.79233205	         -2.92178638	          0.24123119	        -17.24824365	          0.47344332	          8.98142285	         -8.18447099	          3.34940645	         11.71901682	         16.87828840	         -6.24778414	         -0.04231054	         -1.58101582	        -26.71431553	        -14.29777750	          8.69378718	         27.24905526	         23.11847574	        -13.47748294	         18.97153348	         58.49585213	          0.01000000	          0.01000000	          0.01000013	          0.01000001	          0.01000001	          0.01000001	          0.12859593	          0.03035325	          0.05544329	          0.01000002	          0.01192200	          0.05346603	          0.17645002	          0.18094698	          0.15316346	          0.10026303	          0.01000001	          0.01663713	          0.10163571	          0.01000008	          0.05396240	          0.06307493	          0.01399652	          0.01399651	          0.20339342	          0.01830958	          0.01007460	          0.01183072	          0.10715174	          0.09521740	          0.08568207	          0.01399677	          0.01605616	          0.01399652	          0.01371303	          0.01183072	          0.01382906	          0.23824864	          0.16453412	          0.14286971	          0.08163011	          0.37766859	          0.02043444	          0.18481767	          0.06956033	          0.04396866	          0.20340029	          0.15831574	          0.10493338	          0.01000061	          0.01000012	          0.01000015	          0.02740013	          0.07164207	          0.12027436	          0.06074583	          0.01183075	          0.01182869	          0.01000130	          0.27433949	          0.08730587	          0.01182265	          0.01288758	          0.01002316	          0.01000043	          0.16687964	          0.30653372	          0.01183068	          0.01183092	          0.04281134	          0.21860011	          0.03837818	          0.03242062	          0.02529959	          0.27559050	          0.30872533	          0.24576958	          0.24704765	          0.26856502	          0.33539300	          0.01018677	          0.05892150	          0.20419411	          0.01170467	          0.01000765	          0.01072966	          0.00999999	          0.02560134	          0.02549333	          0.02748873	          0.07884443	          0.01399653	
          1.13136883	         -2.90045386	         -1.16632887	          3.84278868	          1.28732949	          0.84442738	         -0.00136085	         26.51098045	          3.45221487	          2.89693501	        -11.72722690	          3.45304112	         -2.99935167	          0.24009798	        -17.03786744	          0.17765983	          8.85801198	        -10.30797354	          2.02996951	         11.98163432	         17.99696390	         -6.08825903	          0.48401428	         -1.62805022	        -27.28681496	        -14.25925556	          9.14201936	         26.34846162	         22.59175300	        -13.49362284	         18.79065442	         59.77012832	          0.23498048	          0.23492406	          0.23115968	          0.18762173	          0.06634272	          0.01000005	          0.10869686	          0.07513054	          0.04834138	          0.01399658	          0.01007721	          0.04519265	          0.14914598	          0.15294708	          0.12946285	          0.12391619	          0.01000006	          0.01406273	          0.08590863	          0.19106665	          0.12627746	          0.08769459	          0.01183069	          0.01183068	          0.17192012	          0.01547635	          0.01000002	          0.01000003	          0.09057098	          0.08048337	          0.07242354	          0.01183090	          0.01357161	          0.01183069	          0.01159106	          0.01000002	          0.01168913	          0.40383138	          0.28166776	          0.14305445	          0.46984830	          0.46386685	          0.24451361	          0.21395375	          0.05879649	          0.03716490	          0.23725124	          0.13381780	          0.08869588	          0.01098010	          0.01000001	          0.01000000	          0.02316021	          0.06055610	          0.14748093	          0.05134599	          0.01000012	          0.01000015	          0.01000011	          0.23188793	          0.07379614	          0.01000004	          0.01089337	          0.01000004	          0.01000004	          0.14105651	          0.25910038	          0.01000000	          0.01000021	          0.03618667	          0.21127518	          0.03243959	          0.02740396	          0.02138478	          0.23294534	          0.26095286	          0.20773894	          0.20881926	          0.22700700	          0.28349394	          0.00999999	          0.08736983	          0.17259695	          0.01000000	          0.00999999	          0.01000000	          0.03401278	          0.06109677	          0.02154847	          0.02323509	          0.06664396	          0.01183069	
